# WaveFront *.obj file (generated by Autodesk ATF)

mtllib Haro_under v3.mtl

g 본체1

v -9.232209 -7.000000 39.550000
v -9.232209 -7.000000 39.250000
v -9.232209 -4.687423 39.250000
v -9.232209 -4.687423 39.550000
v -12.000000 -6.437423 39.550000
v -12.000000 -6.437423 39.250000
v -12.482209 -6.437423 39.250000
v -12.482209 -6.437423 39.550000
v -12.000000 -7.500000 39.250000
v -10.982209 -7.500000 39.250000
v -10.982209 -7.937423 39.250000
v -12.482209 -7.937423 39.250000
v -11.500000 -7.000000 39.250000
v -11.500000 -4.687423 39.250000
v -10.982209 -7.500000 39.550000
v -10.982209 -7.937423 39.550000
v -12.482209 -7.937423 39.550000
v -11.500000 -4.687423 39.550000
v -11.250000 -7.000000 39.550000
v -11.500000 -6.750000 39.550000
v -12.000000 -6.750000 39.550000
v -11.250000 -7.500000 39.550000
v -11.250000 -7.500000 40.000000
v -11.250000 -7.000000 40.000000
v -12.000000 -7.500000 29.437500
v -12.000000 -7.500000 19.625000
v -12.000000 -7.500000 9.812500
v -12.000000 -7.500000 0.000000
v -4.000000 -7.500000 0.000000
v 4.000000 -7.500000 0.000000
v 12.000000 -7.500000 0.000000
v 12.000000 -7.500000 10.000000
v 12.000000 -7.500000 20.000000
v 12.000000 -7.500000 30.000000
v 12.000000 -7.500000 40.000000
v 4.250000 -7.500000 40.000000
v -3.500000 -7.500000 40.000000
v -4.000000 -7.500000 30.000000
v 4.000000 -7.500000 30.000000
v -4.000000 -7.500000 20.000000
v 4.000000 -7.500000 20.000000
v -4.000000 -7.500000 10.000000
v 4.000000 -7.500000 10.000000
v -11.500000 -6.750000 40.000000
v -12.000000 -6.750000 40.000000
v -11.500000 -7.000000 30.300000
v -11.500000 0.000000 30.300000
v -11.500000 7.000000 30.300000
v -11.500000 7.000000 40.000000
v -11.500000 0.125000 40.000000
v -12.000000 0.375000 40.000000
v -12.000000 7.500000 40.000000
v -12.000000 7.500000 30.000000
v -12.000000 7.500000 20.000000
v -12.000000 7.500000 10.000000
v -12.000000 7.500000 0.000000
v -12.000000 0.000000 0.000000
v -12.000000 0.000000 30.000000
v -12.000000 0.000000 20.000000
v -12.000000 0.000000 10.000000
v -3.833333 7.000000 30.300000
v 3.833333 7.000000 30.300000
v 11.500000 7.000000 30.300000
v 11.500000 7.000000 40.000000
v 3.833333 7.000000 40.000000
v -3.833333 7.000000 40.000000
v -3.666667 -7.000000 40.000000
v 3.916667 -7.000000 40.000000
v 11.500000 -7.000000 40.000000
v 11.500000 -7.000000 30.300000
v 3.833333 -7.000000 30.300000
v -3.833333 -7.000000 30.300000
v 11.500000 0.000000 30.300000
v 11.500000 0.000000 40.000000
v 12.000000 0.000000 40.000000
v 12.000000 7.500000 40.000000
v 4.000000 7.500000 40.000000
v -4.000000 7.500000 40.000000
v 0.000000 0.000000 30.300000
v 12.000000 7.500000 0.000000
v 4.000000 7.500000 0.000000
v -4.000000 7.500000 0.000000
v 12.000000 7.500000 30.000000
v 12.000000 7.500000 20.000000
v 12.000000 7.500000 10.000000
v -4.000000 7.500000 10.000000
v 4.000000 7.500000 10.000000
v -4.000000 7.500000 20.000000
v 4.000000 7.500000 20.000000
v -4.000000 7.500000 30.000000
v 4.000000 7.500000 30.000000
v 12.000000 0.000000 0.000000
v 12.000000 -0.000000 10.000000
v 12.000000 -0.000000 20.000000
v 12.000000 -0.000000 30.000000
v 4.000000 0.000000 0.000000
v -4.000000 0.000000 0.000000
v -11.500000 7.000000 1.000000
v -11.500000 0.000000 1.000000
v -11.500000 -7.000000 1.000000
v -3.833333 -7.000000 1.000000
v 3.833333 -7.000000 1.000000
v 11.500000 -7.000000 1.000000
v 11.500000 0.000000 1.000000
v 11.500000 7.000000 1.000000
v 3.833333 7.000000 1.000000
v -3.833333 7.000000 1.000000
v 0.000000 0.000000 1.000000
v -11.500000 -7.000000 30.000000
v -11.500000 -7.000000 20.333333
v -11.500000 -7.000000 10.666667
v -11.500000 7.000000 10.666667
v -11.500000 7.000000 20.333333
v -11.500000 7.000000 30.000000
v -11.500000 0.000000 30.000000
v -11.500000 0.000000 20.333333
v -11.500000 0.000000 10.666667
v 11.500000 7.000000 10.666667
v 11.500000 7.000000 20.333333
v 11.500000 7.000000 30.000000
v 3.833333 7.000000 30.000000
v -3.833333 7.000000 30.000000
v 0.000000 7.000000 20.333333
v 0.000000 7.000000 10.666667
v 11.500000 -7.000000 10.666667
v 11.500000 -7.000000 20.333333
v 11.500000 -7.000000 30.000000
v 11.500000 0.000000 30.000000
v 11.500000 0.000000 20.333333
v 11.500000 0.000000 10.666667
v -3.833333 -7.000000 30.000000
v 3.833333 -7.000000 30.000000
v 0.000000 -7.000000 20.333333
v 0.000000 -7.000000 10.666667
v 0.000000 0.000000 30.000000
vt 0.187423 0.000000 0.000000
vt 2.500000 0.000000 0.000000
vt 0.187423 0.300000 0.000000
vt 2.500000 0.300000 0.000000
vt 0.267791 0.000000 0.000000
vt 0.750000 0.000000 0.000000
vt 0.267791 0.300000 0.000000
vt 0.750000 0.300000 0.000000
vt -0.125000 1.187577 0.000000
vt -0.125000 1.625000 0.000000
vt -1.142791 1.187577 0.000000
vt -1.625000 1.625000 0.000000
vt -1.625000 0.125000 0.000000
vt -1.142791 0.125000 0.000000
vt 1.625000 0.687577 0.000000
vt -0.642791 0.687577 0.000000
vt 1.625000 -1.625000 0.000000
vt -0.642791 -1.625000 0.000000
vt 0.437423 0.300000 0.000000
vt 0.000000 0.300000 0.000000
vt 0.437423 0.000000 0.000000
vt 0.000000 0.000000 0.000000
vt 0.000000 0.000000 0.000000
vt 1.500000 0.000000 0.000000
vt 0.000000 0.300000 0.000000
vt 1.500000 0.300000 0.000000
vt -0.000000 0.000000 0.000000
vt 1.500000 0.000000 0.000000
vt -0.000000 0.300000 0.000000
vt 1.500000 0.300000 0.000000
vt 2.267791 0.300000 0.000000
vt 0.000000 0.300000 0.000000
vt 2.267791 0.000000 0.000000
vt 0.000000 0.000000 0.000000
vt 1.625000 -0.687577 0.000000
vt 1.625000 1.625000 0.000000
vt -0.392791 -0.687577 0.000000
vt -0.642791 -0.437577 0.000000
vt -1.142791 -0.437577 0.000000
vt -0.642791 1.625000 0.000000
vt -1.142791 -0.125000 0.000000
vt -1.625000 -0.125000 0.000000
vt -1.625000 -1.625000 0.000000
vt -0.392791 -1.187577 0.000000
vt -0.125000 -1.625000 0.000000
vt -0.125000 -1.187577 0.000000
vt -0.250000 0.450000 0.000000
vt -0.750000 0.450000 0.000000
vt -0.250000 0.000000 0.000000
vt -0.750000 0.000000 0.000000
vt 0.750000 39.550000 0.000000
vt 1.017791 39.550000 0.000000
vt 0.750000 40.000000 0.000000
vt 8.500000 40.000000 0.000000
vt 1.017791 39.250000 0.000000
vt 8.000000 30.000000 0.000000
vt 0.000000 29.437500 0.000000
vt 8.000000 20.000000 0.000000
vt 0.000000 19.625000 0.000000
vt 8.000000 10.000000 0.000000
vt 0.000000 9.812500 0.000000
vt 8.000000 0.000000 0.000000
vt 0.000000 0.000000 0.000000
vt 0.000000 39.250000 0.000000
vt 16.000000 0.000000 0.000000
vt 16.000000 10.000000 0.000000
vt 16.000000 20.000000 0.000000
vt 16.000000 30.000000 0.000000
vt 16.250000 40.000000 0.000000
vt 24.000000 30.000000 0.000000
vt 24.000000 40.000000 0.000000
vt 24.000000 0.000000 0.000000
vt 24.000000 10.000000 0.000000
vt 24.000000 20.000000 0.000000
vt -0.000000 0.450000 0.000000
vt -0.500000 0.450000 0.000000
vt -0.000000 0.000000 0.000000
vt -0.500000 0.000000 0.000000
vt 0.250000 9.550000 0.000000
vt 2.312577 9.550000 0.000000
vt 0.250000 10.000000 0.000000
vt 7.125000 10.000000 0.000000
vt 2.312577 9.250000 0.000000
vt 7.000000 0.300000 0.000000
vt 0.000000 0.300000 0.000000
vt 0.000000 9.250000 0.000000
vt 14.000000 0.300000 0.000000
vt 14.000000 10.000000 0.000000
vt 14.250000 39.550000 0.000000
vt 14.250000 40.000000 0.000000
vt 13.937423 39.550000 0.000000
vt 7.125000 40.000000 0.000000
vt 13.937423 39.250000 0.000000
vt 7.500000 30.000000 0.000000
vt 15.000000 29.437500 0.000000
vt 7.500000 20.000000 0.000000
vt 15.000000 19.625000 0.000000
vt 7.500000 10.000000 0.000000
vt 15.000000 9.812500 0.000000
vt 7.500000 0.000000 0.000000
vt 15.000000 0.000000 0.000000
vt 0.000000 40.000000 0.000000
vt 0.000000 30.000000 0.000000
vt 0.000000 20.000000 0.000000
vt 0.000000 10.000000 0.000000
vt 0.000000 0.000000 0.000000
vt 15.000000 39.250000 0.000000
vt 0.000000 0.300000 0.000000
vt 7.666667 0.300000 0.000000
vt 0.000000 10.000000 0.000000
vt 7.666667 10.000000 0.000000
vt 15.333333 0.300000 0.000000
vt 15.333333 10.000000 0.000000
vt 23.000000 0.300000 0.000000
vt 23.000000 10.000000 0.000000
vt 22.750000 9.550000 0.000000
vt 22.750000 10.000000 0.000000
vt 20.732209 9.550000 0.000000
vt 15.166667 10.000000 0.000000
vt 20.732209 9.250000 0.000000
vt 15.333333 0.300000 0.000000
vt 23.000000 0.300000 0.000000
vt 7.666667 0.300000 0.000000
vt 7.583333 10.000000 0.000000
vt 0.000000 0.300000 0.000000
vt 0.000000 10.000000 0.000000
vt 23.000000 9.250000 0.000000
vt 0.000000 0.300000 0.000000
vt 7.000000 0.300000 0.000000
vt 0.000000 10.000000 0.000000
vt 7.000000 10.000000 0.000000
vt 14.000000 0.300000 0.000000
vt 14.000000 10.000000 0.000000
vt -11.250000 -7.000000 0.000000
vt -11.250000 -7.500000 0.000000
vt -3.666667 -7.000000 0.000000
vt -3.500000 -7.500000 0.000000
vt 3.916667 -7.000000 0.000000
vt 4.250000 -7.500000 0.000000
vt 11.500000 -7.000000 0.000000
vt 12.000000 -7.500000 0.000000
vt 12.000000 0.000000 0.000000
vt 12.000000 7.500000 0.000000
vt 11.500000 7.000000 0.000000
vt 11.500000 0.000000 0.000000
vt 4.000000 7.500000 0.000000
vt 3.833333 7.000000 0.000000
vt -4.000000 7.500000 0.000000
vt -3.833333 7.000000 0.000000
vt -11.500000 7.000000 0.000000
vt -12.000000 7.500000 0.000000
vt -12.000000 0.375000 0.000000
vt -11.500000 0.125000 0.000000
vt -12.000000 -6.750000 0.000000
vt -11.500000 -6.750000 0.000000
vt -11.500000 -7.000000 0.000000
vt -3.833333 -7.000000 0.000000
vt -11.500000 0.000000 0.000000
vt 0.000000 0.000000 0.000000
vt -3.833333 7.000000 0.000000
vt 3.833333 7.000000 0.000000
vt 11.500000 0.000000 0.000000
vt 11.500000 7.000000 0.000000
vt 3.833333 -7.000000 0.000000
vt 11.500000 -7.000000 0.000000
vt -11.500000 7.000000 0.000000
vt 0.000000 0.000000 0.000000
vt 8.000000 0.000000 0.000000
vt 0.000000 10.000000 0.000000
vt 8.000000 10.000000 0.000000
vt 0.000000 20.000000 0.000000
vt 8.000000 20.000000 0.000000
vt 0.000000 30.000000 0.000000
vt 8.000000 30.000000 0.000000
vt -0.000000 40.000000 0.000000
vt 8.000000 40.000000 0.000000
vt 16.000000 30.000000 0.000000
vt 16.000000 40.000000 0.000000
vt 24.000000 30.000000 0.000000
vt 24.000000 40.000000 0.000000
vt 16.000000 0.000000 0.000000
vt 16.000000 10.000000 0.000000
vt 16.000000 20.000000 0.000000
vt 24.000000 0.000000 0.000000
vt 24.000000 10.000000 0.000000
vt 24.000000 20.000000 0.000000
vt 0.000000 0.000000 0.000000
vt 7.500000 0.000000 0.000000
vt 0.000000 10.000000 0.000000
vt 7.500000 10.000000 0.000000
vt 0.000000 20.000000 0.000000
vt 7.500000 20.000000 0.000000
vt 0.000000 30.000000 0.000000
vt 7.500000 30.000000 0.000000
vt -0.000000 40.000000 0.000000
vt 7.500000 40.000000 0.000000
vt 15.000000 30.000000 0.000000
vt 15.000000 40.000000 0.000000
vt 15.000000 0.000000 0.000000
vt 15.000000 10.000000 0.000000
vt 15.000000 20.000000 0.000000
vt -4.000000 7.500000 0.000000
vt -12.000000 7.500000 0.000000
vt -4.000000 0.000000 0.000000
vt -12.000000 0.000000 0.000000
vt -4.000000 -7.500000 0.000000
vt -12.000000 -7.500000 0.000000
vt 4.000000 -7.500000 0.000000
vt 4.000000 0.000000 0.000000
vt 4.000000 7.500000 0.000000
vt 12.000000 0.000000 0.000000
vt 12.000000 7.500000 0.000000
vt 12.000000 -7.500000 0.000000
vt -11.500000 7.000000 0.000000
vt -11.500000 0.000000 0.000000
vt -3.833333 7.000000 0.000000
vt 0.000000 0.000000 0.000000
vt 3.833333 7.000000 0.000000
vt 11.500000 0.000000 0.000000
vt 11.500000 7.000000 0.000000
vt -11.500000 -7.000000 0.000000
vt -3.833333 -7.000000 0.000000
vt 3.833333 -7.000000 0.000000
vt 11.500000 -7.000000 0.000000
vt -7.000000 -15.000000 0.000000
vt -0.000000 -15.000000 0.000000
vt -7.000000 -5.333333 0.000000
vt -0.000000 -5.333333 0.000000
vt -7.000000 4.333333 0.000000
vt -0.000000 4.333333 0.000000
vt -7.000000 14.000000 0.000000
vt -0.000000 14.000000 0.000000
vt -14.000000 14.000000 0.000000
vt -14.000000 4.333333 0.000000
vt -14.000000 -5.333333 0.000000
vt -14.000000 -15.000000 0.000000
vt -0.000000 -15.000000 0.000000
vt -0.000000 -5.333333 0.000000
vt -7.666667 -15.000000 0.000000
vt -11.500000 -5.333333 0.000000
vt -15.333333 -15.000000 0.000000
vt -23.000000 -5.333333 0.000000
vt -23.000000 -15.000000 0.000000
vt -11.500000 4.333333 0.000000
vt -0.000000 4.333333 0.000000
vt -7.666667 14.000000 0.000000
vt -0.000000 14.000000 0.000000
vt -15.333333 14.000000 0.000000
vt -23.000000 4.333333 0.000000
vt -23.000000 14.000000 0.000000
vt -7.000000 -15.000000 0.000000
vt 0.000000 -15.000000 0.000000
vt -7.000000 -5.333333 0.000000
vt 0.000000 -5.333333 0.000000
vt -7.000000 4.333333 0.000000
vt -0.000000 4.333333 0.000000
vt -7.000000 14.000000 0.000000
vt -0.000000 14.000000 0.000000
vt -14.000000 14.000000 0.000000
vt -14.000000 4.333333 0.000000
vt -14.000000 -5.333333 0.000000
vt -14.000000 -15.000000 0.000000
vt 0.000000 -15.000000 0.000000
vt 0.000000 -5.333333 0.000000
vt -7.666667 -15.000000 0.000000
vt -11.500000 -5.333333 0.000000
vt -15.333333 -15.000000 0.000000
vt -23.000000 -5.333333 0.000000
vt -23.000000 -15.000000 0.000000
vt -11.500000 4.333333 0.000000
vt -0.000000 4.333333 0.000000
vt -7.666667 14.000000 0.000000
vt -0.000000 14.000000 0.000000
vt -15.333333 14.000000 0.000000
vt -23.000000 4.333333 0.000000
vt -23.000000 14.000000 0.000000
vt 11.500000 7.000000 0.000000
vt 3.833333 7.000000 0.000000
vt 11.500000 0.000000 0.000000
vt 0.000000 0.000000 0.000000
vt 3.833333 -7.000000 0.000000
vt -3.833333 -7.000000 0.000000
vt -11.500000 0.000000 0.000000
vt -11.500000 -7.000000 0.000000
vt -3.833333 7.000000 0.000000
vt -11.500000 7.000000 0.000000
vt 11.500000 -7.000000 0.000000
vn 1.000000 0.000000 0.000000
vn 1.000000 0.000000 0.000000
vn 1.000000 0.000000 0.000000
vn 1.000000 0.000000 0.000000
vn 0.000000 1.000000 -0.000000
vn 0.000000 1.000000 -0.000000
vn 0.000000 1.000000 -0.000000
vn 0.000000 1.000000 -0.000000
vn -0.000000 -0.000000 -1.000000
vn -0.000000 -0.000000 -1.000000
vn -0.000000 -0.000000 -1.000000
vn -0.000000 -0.000000 -1.000000
vn -0.000000 -0.000000 -1.000000
vn -0.000000 -0.000000 -1.000000
vn -0.000000 -0.000000 -1.000000
vn -0.000000 -0.000000 -1.000000
vn -0.000000 -0.000000 -1.000000
vn -0.000000 -0.000000 -1.000000
vn 1.000000 0.000000 -0.000000
vn 1.000000 0.000000 -0.000000
vn 1.000000 0.000000 -0.000000
vn 1.000000 0.000000 -0.000000
vn 0.000000 -1.000000 0.000000
vn 0.000000 -1.000000 0.000000
vn 0.000000 -1.000000 0.000000
vn 0.000000 -1.000000 0.000000
vn -1.000000 0.000000 0.000000
vn -1.000000 0.000000 0.000000
vn -1.000000 0.000000 0.000000
vn -1.000000 0.000000 0.000000
vn -0.000000 1.000000 0.000000
vn -0.000000 1.000000 0.000000
vn -0.000000 1.000000 0.000000
vn -0.000000 1.000000 0.000000
vn 0.000000 0.000000 1.000000
vn 0.000000 0.000000 1.000000
vn 0.000000 0.000000 1.000000
vn 0.000000 0.000000 1.000000
vn 0.000000 0.000000 1.000000
vn 0.000000 0.000000 1.000000
vn 0.000000 0.000000 1.000000
vn 0.000000 0.000000 1.000000
vn 0.000000 0.000000 1.000000
vn 0.000000 0.000000 1.000000
vn 0.000000 0.000000 1.000000
vn 0.000000 0.000000 1.000000
vn -1.000000 0.000000 -0.000000
vn -1.000000 0.000000 -0.000000
vn -1.000000 0.000000 -0.000000
vn -1.000000 0.000000 -0.000000
vn 0.000000 -1.000000 0.000000
vn 0.000000 -1.000000 0.000000
vn 0.000000 -1.000000 0.000000
vn 0.000000 -1.000000 0.000000
vn 0.000000 -1.000000 0.000000
vn 0.000000 -1.000000 0.000000
vn 0.000000 -1.000000 0.000000
vn 0.000000 -1.000000 0.000000
vn 0.000000 -1.000000 0.000000
vn 0.000000 -1.000000 0.000000
vn 0.000000 -1.000000 0.000000
vn 0.000000 -1.000000 0.000000
vn 0.000000 -1.000000 0.000000
vn 0.000000 -1.000000 0.000000
vn 0.000000 -1.000000 0.000000
vn 0.000000 -1.000000 0.000000
vn 0.000000 -1.000000 0.000000
vn 0.000000 -1.000000 0.000000
vn 0.000000 -1.000000 0.000000
vn 0.000000 -1.000000 0.000000
vn 0.000000 -1.000000 0.000000
vn 0.000000 -1.000000 0.000000
vn 0.000000 -1.000000 0.000000
vn 0.000000 -1.000000 0.000000
vn -0.000000 -1.000000 -0.000000
vn -0.000000 -1.000000 -0.000000
vn -0.000000 -1.000000 -0.000000
vn -0.000000 -1.000000 -0.000000
vn 1.000000 0.000000 0.000000
vn 1.000000 0.000000 0.000000
vn 1.000000 0.000000 0.000000
vn 1.000000 0.000000 0.000000
vn 1.000000 0.000000 0.000000
vn 1.000000 0.000000 0.000000
vn 1.000000 0.000000 0.000000
vn 1.000000 0.000000 0.000000
vn 1.000000 0.000000 0.000000
vn 1.000000 0.000000 0.000000
vn -1.000000 0.000000 0.000000
vn -1.000000 0.000000 0.000000
vn -1.000000 0.000000 0.000000
vn -1.000000 0.000000 0.000000
vn -1.000000 0.000000 0.000000
vn -1.000000 0.000000 0.000000
vn -1.000000 0.000000 0.000000
vn -1.000000 0.000000 0.000000
vn -1.000000 0.000000 0.000000
vn -1.000000 0.000000 0.000000
vn -1.000000 0.000000 0.000000
vn -1.000000 0.000000 0.000000
vn -1.000000 0.000000 0.000000
vn -1.000000 0.000000 0.000000
vn -1.000000 0.000000 0.000000
vn -1.000000 0.000000 0.000000
vn -1.000000 0.000000 0.000000
vn -1.000000 0.000000 0.000000
vn -1.000000 0.000000 0.000000
vn 0.000000 -1.000000 0.000000
vn 0.000000 -1.000000 0.000000
vn 0.000000 -1.000000 0.000000
vn 0.000000 -1.000000 0.000000
vn 0.000000 -1.000000 0.000000
vn 0.000000 -1.000000 0.000000
vn 0.000000 -1.000000 0.000000
vn 0.000000 -1.000000 0.000000
vn 0.000000 1.000000 -0.000000
vn 0.000000 1.000000 -0.000000
vn 0.000000 1.000000 -0.000000
vn 0.000000 1.000000 -0.000000
vn 0.000000 1.000000 -0.000000
vn 0.000000 1.000000 -0.000000
vn 0.000000 1.000000 -0.000000
vn 0.000000 1.000000 -0.000000
vn 0.000000 1.000000 -0.000000
vn 0.000000 1.000000 -0.000000
vn 0.000000 1.000000 -0.000000
vn 0.000000 1.000000 -0.000000
vn -1.000000 0.000000 0.000000
vn -1.000000 0.000000 0.000000
vn -1.000000 0.000000 0.000000
vn -1.000000 0.000000 0.000000
vn -1.000000 0.000000 0.000000
vn -1.000000 0.000000 0.000000
vn 0.000000 0.000000 1.000000
vn 0.000000 0.000000 1.000000
vn 0.000000 0.000000 1.000000
vn 0.000000 0.000000 1.000000
vn 0.000000 0.000000 1.000000
vn 0.000000 0.000000 1.000000
vn 0.000000 0.000000 1.000000
vn 0.000000 0.000000 1.000000
vn 0.000000 0.000000 1.000000
vn 0.000000 0.000000 1.000000
vn 0.000000 0.000000 1.000000
vn 0.000000 0.000000 1.000000
vn 0.000000 0.000000 1.000000
vn 0.000000 0.000000 1.000000
vn 0.000000 0.000000 1.000000
vn 0.000000 0.000000 1.000000
vn 0.000000 0.000000 1.000000
vn 0.000000 0.000000 1.000000
vn 0.000000 0.000000 1.000000
vn 0.000000 0.000000 1.000000
vn 0.000000 0.000000 1.000000
vn 0.000000 0.000000 1.000000
vn 0.000000 0.000000 1.000000
vn 0.000000 0.000000 1.000000
vn 0.000000 0.000000 1.000000
vn 0.000000 0.000000 1.000000
vn 0.000000 0.000000 1.000000
vn 0.000000 0.000000 1.000000
vn 0.000000 0.000000 1.000000
vn 0.000000 0.000000 1.000000
vn 0.000000 0.000000 1.000000
vn 0.000000 0.000000 1.000000
vn 0.000000 0.000000 1.000000
vn 0.000000 1.000000 -0.000000
vn 0.000000 1.000000 -0.000000
vn 0.000000 1.000000 -0.000000
vn 0.000000 1.000000 -0.000000
vn 0.000000 1.000000 -0.000000
vn 0.000000 1.000000 -0.000000
vn 0.000000 1.000000 -0.000000
vn 0.000000 1.000000 -0.000000
vn 0.000000 1.000000 -0.000000
vn 0.000000 1.000000 -0.000000
vn 0.000000 1.000000 -0.000000
vn 0.000000 1.000000 -0.000000
vn 0.000000 1.000000 -0.000000
vn 0.000000 1.000000 -0.000000
vn 0.000000 1.000000 -0.000000
vn 0.000000 1.000000 -0.000000
vn 0.000000 1.000000 -0.000000
vn 0.000000 1.000000 -0.000000
vn 0.000000 1.000000 -0.000000
vn 0.000000 1.000000 -0.000000
vn 1.000000 0.000000 0.000000
vn 1.000000 0.000000 0.000000
vn 1.000000 0.000000 0.000000
vn 1.000000 0.000000 0.000000
vn 1.000000 0.000000 0.000000
vn 1.000000 0.000000 0.000000
vn 1.000000 0.000000 0.000000
vn 1.000000 0.000000 0.000000
vn 1.000000 0.000000 0.000000
vn 1.000000 0.000000 0.000000
vn 1.000000 0.000000 0.000000
vn 1.000000 0.000000 0.000000
vn 1.000000 0.000000 0.000000
vn 1.000000 0.000000 0.000000
vn 1.000000 0.000000 0.000000
vn -0.000000 -0.000000 -1.000000
vn -0.000000 -0.000000 -1.000000
vn -0.000000 -0.000000 -1.000000
vn -0.000000 -0.000000 -1.000000
vn -0.000000 -0.000000 -1.000000
vn -0.000000 -0.000000 -1.000000
vn -0.000000 -0.000000 -1.000000
vn -0.000000 -0.000000 -1.000000
vn -0.000000 -0.000000 -1.000000
vn -0.000000 -0.000000 -1.000000
vn -0.000000 -0.000000 -1.000000
vn -0.000000 -0.000000 -1.000000
vn -0.000000 -0.000000 1.000000
vn -0.000000 -0.000000 1.000000
vn -0.000000 -0.000000 1.000000
vn -0.000000 -0.000000 1.000000
vn -0.000000 -0.000000 1.000000
vn -0.000000 -0.000000 1.000000
vn -0.000000 -0.000000 1.000000
vn -0.000000 -0.000000 1.000000
vn -0.000000 -0.000000 1.000000
vn -0.000000 -0.000000 1.000000
vn -0.000000 -0.000000 1.000000
vn 1.000000 0.000000 0.000000
vn 1.000000 0.000000 0.000000
vn 1.000000 0.000000 0.000000
vn 1.000000 0.000000 0.000000
vn 1.000000 0.000000 0.000000
vn 1.000000 0.000000 0.000000
vn 1.000000 0.000000 0.000000
vn 1.000000 0.000000 0.000000
vn 1.000000 0.000000 0.000000
vn 1.000000 0.000000 0.000000
vn 1.000000 0.000000 0.000000
vn 1.000000 0.000000 0.000000
vn -0.000000 -1.000000 -0.000000
vn -0.000000 -1.000000 -0.000000
vn -0.000000 -1.000000 -0.000000
vn -0.000000 -1.000000 -0.000000
vn -0.000000 -1.000000 -0.000000
vn -0.000000 -1.000000 -0.000000
vn -0.000000 -1.000000 -0.000000
vn -0.000000 -1.000000 -0.000000
vn -0.000000 -1.000000 -0.000000
vn -0.000000 -1.000000 -0.000000
vn -0.000000 -1.000000 -0.000000
vn -0.000000 -1.000000 -0.000000
vn -0.000000 -1.000000 -0.000000
vn -0.000000 -1.000000 -0.000000
vn -1.000000 0.000000 -0.000000
vn -1.000000 0.000000 -0.000000
vn -1.000000 0.000000 -0.000000
vn -1.000000 0.000000 -0.000000
vn -1.000000 0.000000 -0.000000
vn -1.000000 0.000000 -0.000000
vn -1.000000 0.000000 -0.000000
vn -1.000000 0.000000 -0.000000
vn -1.000000 0.000000 -0.000000
vn -1.000000 0.000000 -0.000000
vn -1.000000 0.000000 -0.000000
vn -1.000000 0.000000 -0.000000
vn -0.000000 1.000000 -0.000000
vn -0.000000 1.000000 -0.000000
vn -0.000000 1.000000 -0.000000
vn -0.000000 1.000000 -0.000000
vn -0.000000 1.000000 -0.000000
vn -0.000000 1.000000 -0.000000
vn -0.000000 1.000000 -0.000000
vn -0.000000 1.000000 -0.000000
vn -0.000000 1.000000 -0.000000
vn -0.000000 1.000000 -0.000000
vn -0.000000 1.000000 -0.000000
vn -0.000000 1.000000 -0.000000
vn -0.000000 1.000000 -0.000000
vn -0.000000 1.000000 -0.000000
vn -0.000000 -0.000000 -1.000000
vn -0.000000 -0.000000 -1.000000
vn -0.000000 -0.000000 -1.000000
vn -0.000000 -0.000000 -1.000000
vn -0.000000 -0.000000 -1.000000
vn -0.000000 -0.000000 -1.000000
vn -0.000000 -0.000000 -1.000000
vn -0.000000 -0.000000 -1.000000
vn -0.000000 -0.000000 -1.000000
vn -0.000000 -0.000000 -1.000000
vn -0.000000 -0.000000 -1.000000
usemtl 강철_-_새틴
f 2/1/1 3/2/2 1/3/3
f 1/3/3 3/2/2 4/4/4
f 6/5/5 7/6/6 5/7/7
f 5/7/7 7/6/6 8/8/8
f 10/9/9 11/10/10 9/11/11
f 9/11/11 11/10/10 12/12/12
f 9/11/11 12/12/12 7/13/13
f 7/13/13 6/14/14 9/11/11
f 2/15/15 13/16/16 3/17/17
f 3/17/17 13/16/16 14/18/18
f 15/19/19 16/20/20 10/21/21
f 10/21/21 16/20/20 11/22/22
f 12/23/23 11/24/24 17/25/25
f 17/25/25 11/24/24 16/26/26
f 7/27/27 12/28/28 8/29/29
f 8/29/29 12/28/28 17/30/30
f 18/31/31 4/32/32 14/33/33
f 14/33/33 4/32/32 3/34/34
f 1/35/35 4/36/36 19/37/37
f 19/37/37 4/36/36 20/38/38
f 19/37/37 20/38/38 21/39/39
f 4/36/36 18/40/40 20/38/38
f 5/41/41 8/42/42 21/39/39
f 21/39/39 8/42/42 17/43/43
f 21/39/39 17/43/43 22/44/44
f 22/44/44 17/43/43 16/45/45
f 22/44/44 16/45/45 15/46/46
f 22/44/44 19/37/37 21/39/39
f 19/47/47 22/48/48 24/49/49
f 24/49/49 22/48/48 23/50/50
f 22/51/51 15/52/52 23/53/53
f 23/53/53 15/52/52 37/54/54
f 37/54/54 15/52/52 10/55/55
f 37/54/54 10/55/55 38/56/56
f 38/56/56 10/55/55 25/57/57
f 38/56/56 25/57/57 40/58/58
f 40/58/58 25/57/57 26/59/59
f 40/58/58 26/59/59 42/60/60
f 42/60/60 26/59/59 27/61/61
f 42/60/60 27/61/61 29/62/62
f 29/62/62 27/61/61 28/63/63
f 10/55/55 9/64/64 25/57/57
f 29/62/62 30/65/65 42/60/60
f 42/60/60 30/65/65 43/66/66
f 42/60/60 43/66/66 40/58/58
f 40/58/58 43/66/66 41/67/67
f 40/58/58 41/67/67 38/56/56
f 38/56/56 41/67/67 39/68/68
f 38/56/56 39/68/68 37/54/54
f 37/54/54 39/68/68 36/69/69
f 36/69/69 39/68/68 34/70/70
f 36/69/69 34/70/70 35/71/71
f 30/65/65 31/72/72 43/66/66
f 43/66/66 31/72/72 32/73/73
f 43/66/66 32/73/73 41/67/67
f 41/67/67 32/73/73 33/74/74
f 41/67/67 33/74/74 39/68/68
f 39/68/68 33/74/74 34/70/70
f 21/75/75 20/76/76 45/77/77
f 45/77/77 20/76/76 44/78/78
f 20/79/79 18/80/80 44/81/81
f 44/81/81 18/80/80 50/82/82
f 50/82/82 18/80/80 14/83/83
f 50/82/82 14/83/83 47/84/84
f 47/84/84 14/83/83 46/85/85
f 46/85/85 14/83/83 13/86/86
f 47/84/84 48/87/87 50/82/82
f 50/82/82 48/87/87 49/88/88
f 21/89/89 45/90/90 5/91/91
f 5/91/91 45/90/90 51/92/92
f 5/91/91 51/92/92 6/93/93
f 6/93/93 51/92/92 58/94/94
f 6/93/93 58/94/94 25/95/95
f 25/95/95 58/94/94 59/96/96
f 25/95/95 59/96/96 26/97/97
f 26/97/97 59/96/96 60/98/98
f 26/97/97 60/98/98 27/99/99
f 27/99/99 60/98/98 57/100/100
f 27/99/99 57/100/100 28/101/101
f 52/102/102 53/103/103 51/92/92
f 51/92/92 53/103/103 58/94/94
f 58/94/94 53/103/103 59/96/96
f 59/96/96 53/103/103 54/104/104
f 59/96/96 54/104/104 60/98/98
f 60/98/98 54/104/104 55/105/105
f 60/98/98 55/105/105 57/100/100
f 57/100/100 55/105/105 56/106/106
f 25/95/95 9/107/107 6/93/93
f 48/108/108 61/109/109 49/110/110
f 49/110/110 61/109/109 66/111/111
f 66/111/111 61/109/109 62/112/112
f 66/111/111 62/112/112 65/113/113
f 65/113/113 62/112/112 63/114/114
f 65/113/113 63/114/114 64/115/115
f 19/116/116 24/117/117 1/118/118
f 1/118/118 24/117/117 67/119/119
f 1/118/118 67/119/119 2/120/120
f 2/120/120 67/119/119 72/121/121
f 2/120/120 72/121/121 46/122/122
f 72/121/121 67/119/119 71/123/123
f 71/123/123 67/119/119 68/124/124
f 71/123/123 68/124/124 70/125/125
f 70/125/125 68/124/124 69/126/126
f 46/122/122 13/127/127 2/120/120
f 63/128/128 73/129/129 64/130/130
f 64/130/130 73/129/129 74/131/131
f 74/131/131 73/129/129 70/132/132
f 74/131/131 70/132/132 69/133/133
f 24/134/134 23/135/135 67/136/136
f 67/136/136 23/135/135 37/137/137
f 67/136/136 37/137/137 68/138/138
f 68/138/138 37/137/137 36/139/139
f 68/138/138 36/139/139 69/140/140
f 69/140/140 36/139/139 35/141/141
f 69/140/140 35/141/141 75/142/142
f 76/143/143 64/144/144 75/142/142
f 75/142/142 64/144/144 74/145/145
f 75/142/142 74/145/145 69/140/140
f 76/143/143 77/146/146 64/144/144
f 64/144/144 77/146/146 65/147/147
f 65/147/147 77/146/146 78/148/148
f 65/147/147 78/148/148 66/149/149
f 66/149/149 78/148/148 49/150/150
f 49/150/150 78/148/148 52/151/151
f 49/150/150 52/151/151 51/152/152
f 49/150/150 51/152/152 50/153/153
f 50/153/153 51/152/152 45/154/154
f 50/153/153 45/154/154 44/155/155
f 46/156/156 72/157/157 47/158/158
f 47/158/158 72/157/157 79/159/159
f 47/158/158 79/159/159 61/160/160
f 61/160/160 79/159/159 62/161/161
f 62/161/161 79/159/159 73/162/162
f 62/161/161 73/162/162 63/163/163
f 72/157/157 71/164/164 79/159/159
f 79/159/159 71/164/164 73/162/162
f 71/164/164 70/165/165 73/162/162
f 61/160/160 48/166/166 47/158/158
f 80/167/167 81/168/168 85/169/169
f 85/169/169 81/168/168 87/170/170
f 85/169/169 87/170/170 84/171/171
f 84/171/171 87/170/170 89/172/172
f 84/171/171 89/172/172 83/173/173
f 83/173/173 89/172/172 91/174/174
f 83/173/173 91/174/174 76/175/175
f 76/175/175 91/174/174 77/176/176
f 77/176/176 91/174/174 90/177/177
f 77/176/176 90/177/177 78/178/178
f 78/178/178 90/177/177 53/179/179
f 78/178/178 53/179/179 52/180/180
f 81/168/168 82/181/181 87/170/170
f 87/170/170 82/181/181 86/182/182
f 87/170/170 86/182/182 89/172/172
f 89/172/172 86/182/182 88/183/183
f 89/172/172 88/183/183 91/174/174
f 91/174/174 88/183/183 90/177/177
f 82/181/181 56/184/184 86/182/182
f 86/182/182 56/184/184 55/185/185
f 86/182/182 55/185/185 88/183/183
f 88/183/183 55/185/185 54/186/186
f 88/183/183 54/186/186 90/177/177
f 90/177/177 54/186/186 53/179/179
f 31/187/187 92/188/188 32/189/189
f 32/189/189 92/188/188 93/190/190
f 32/189/189 93/190/190 33/191/191
f 33/191/191 93/190/190 94/192/192
f 33/191/191 94/192/192 34/193/193
f 34/193/193 94/192/192 95/194/194
f 34/193/193 95/194/194 35/195/195
f 35/195/195 95/194/194 75/196/196
f 75/196/196 95/194/194 83/197/197
f 75/196/196 83/197/197 76/198/198
f 92/188/188 80/199/199 93/190/190
f 93/190/190 80/199/199 85/200/200
f 93/190/190 85/200/200 94/192/192
f 94/192/192 85/200/200 84/201/201
f 94/192/192 84/201/201 95/194/194
f 95/194/194 84/201/201 83/197/197
f 81/202/202 80/203/203 96/204/204
f 96/204/204 80/203/203 92/205/205
f 96/204/204 92/205/205 30/206/206
f 30/206/206 92/205/205 31/207/207
f 30/206/206 29/208/208 96/204/204
f 96/204/204 29/208/208 97/209/209
f 96/204/204 97/209/209 81/202/202
f 81/202/202 97/209/209 82/210/210
f 82/210/210 97/209/209 57/211/211
f 82/210/210 57/211/211 56/212/212
f 29/208/208 28/213/213 97/209/209
f 97/209/209 28/213/213 57/211/211
f 98/214/214 99/215/215 107/216/216
f 107/216/216 99/215/215 108/217/217
f 107/216/216 108/217/217 106/218/218
f 106/218/218 108/217/217 104/219/219
f 106/218/218 104/219/219 105/220/220
f 100/221/221 101/222/222 99/215/215
f 99/215/215 101/222/222 108/217/217
f 101/222/222 102/223/223 108/217/217
f 108/217/217 102/223/223 104/219/219
f 102/223/223 103/224/224 104/219/219
f 115/225/225 109/226/226 116/227/227
f 116/227/227 109/226/226 110/228/228
f 116/227/227 110/228/228 117/229/229
f 117/229/229 110/228/228 111/230/230
f 117/229/229 111/230/230 99/231/231
f 99/231/231 111/230/230 100/232/232
f 99/231/231 98/233/233 117/229/229
f 117/229/229 98/233/233 112/234/234
f 117/229/229 112/234/234 116/227/227
f 116/227/227 112/234/234 113/235/235
f 116/227/227 113/235/235 115/225/225
f 115/225/225 113/235/235 114/236/236
f 114/237/237 113/238/238 122/239/239
f 122/239/239 113/238/238 123/240/240
f 122/239/239 123/240/240 121/241/241
f 121/241/241 123/240/240 119/242/242
f 121/241/241 119/242/242 120/243/243
f 123/240/240 113/238/238 124/244/244
f 124/244/244 113/238/238 112/245/245
f 124/244/244 112/245/245 107/246/246
f 107/246/246 112/245/245 98/247/247
f 107/246/246 106/248/248 124/244/244
f 124/244/244 106/248/248 118/249/249
f 124/244/244 118/249/249 123/240/240
f 123/240/240 118/249/249 119/242/242
f 106/248/248 105/250/250 118/249/249
f 128/251/251 120/252/252 129/253/253
f 129/253/253 120/252/252 119/254/254
f 129/253/253 119/254/254 130/255/255
f 130/255/255 119/254/254 118/256/256
f 130/255/255 118/256/256 104/257/257
f 104/257/257 118/256/256 105/258/258
f 104/257/257 103/259/259 130/255/255
f 130/255/255 103/259/259 125/260/260
f 130/255/255 125/260/260 129/253/253
f 129/253/253 125/260/260 126/261/261
f 129/253/253 126/261/261 128/251/251
f 128/251/251 126/261/261 127/262/262
f 127/263/263 126/264/264 132/265/265
f 132/265/265 126/264/264 133/266/266
f 132/265/265 133/266/266 131/267/267
f 131/267/267 133/266/266 110/268/268
f 131/267/267 110/268/268 109/269/269
f 133/266/266 126/264/264 134/270/270
f 134/270/270 126/264/264 125/271/271
f 134/270/270 125/271/271 102/272/272
f 102/272/272 125/271/271 103/273/273
f 102/272/272 101/274/274 134/270/270
f 134/270/270 101/274/274 111/275/275
f 134/270/270 111/275/275 133/266/266
f 133/266/266 111/275/275 110/268/268
f 101/274/274 100/276/276 111/275/275
f 127/277/277 132/278/278 128/279/279
f 128/279/279 132/278/278 135/280/280
f 128/279/279 135/280/280 121/281/281
f 121/281/281 135/280/280 122/282/282
f 122/282/282 135/280/280 115/283/283
f 122/282/282 115/283/283 114/284/284
f 132/278/278 131/285/285 135/280/280
f 135/280/280 131/285/285 115/283/283
f 131/285/285 109/286/286 115/283/283
f 121/281/281 120/287/287 128/279/279
# 135 vertices
# 287 texture params
# 287 normals
# 262 facets

# 1 groups
