# WaveFront *.obj file (generated by Autodesk ATF)

mtllib haro_pool.mtl

g 본체1

v 7.200000 -0.475000 0.800000
v 7.200000 -0.458815 0.922939
v 7.200000 -0.411362 1.037500
v 7.200000 -0.335876 1.135876
v 7.200000 -0.237500 1.211362
v 7.200000 -0.122939 1.258815
v 7.200000 0.000000 1.275000
v 7.200000 0.122939 1.258815
v 7.200000 0.237500 1.211362
v 7.200000 0.335876 1.135876
v 7.200000 0.411362 1.037500
v 7.200000 0.458815 0.922939
v 7.200000 0.475000 0.800000
v 7.200000 0.458815 0.677061
v 7.200000 0.411362 0.562500
v 7.200000 0.335876 0.464124
v 7.200000 0.237500 0.388638
v 7.200000 0.122939 0.341185
v 7.200000 0.000000 0.325000
v 7.200000 -0.122939 0.341185
v 7.200000 -0.237500 0.388638
v 7.200000 -0.335876 0.464124
v 7.200000 -0.411362 0.562500
v 7.200000 -0.458815 0.677061
v 7.500000 -0.475000 0.800000
v 7.500000 -0.458815 0.677061
v 7.500000 -0.411362 0.562500
v 7.500000 -0.335876 0.464124
v 7.500000 -0.237500 0.388638
v 7.500000 -0.122939 0.341185
v 7.500000 0.000000 0.325000
v 7.500000 0.122939 0.341185
v 7.500000 0.237500 0.388638
v 7.500000 0.335876 0.464124
v 7.500000 0.411362 0.562500
v 7.500000 0.458815 0.677061
v 7.500000 0.475000 0.800000
v 7.500000 0.458815 0.922939
v 7.500000 0.411362 1.037500
v 7.500000 0.335876 1.135876
v 7.500000 0.237500 1.211362
v 7.500000 0.122939 1.258815
v 7.500000 0.000000 1.275000
v 7.500000 -0.122939 1.258815
v 7.500000 -0.237500 1.211362
v 7.500000 -0.335876 1.135876
v 7.500000 -0.411362 1.037500
v 7.500000 -0.458815 0.922939
v -7.200000 0.475000 0.800000
v -7.200000 0.458815 0.922939
v -7.200000 0.411362 1.037500
v -7.200000 0.335876 1.135876
v -7.200000 0.237500 1.211362
v -7.200000 0.122939 1.258815
v -7.200000 -0.000000 1.275000
v -7.200000 -0.122939 1.258815
v -7.200000 -0.237500 1.211362
v -7.200000 -0.335876 1.135876
v -7.200000 -0.411362 1.037500
v -7.200000 -0.458815 0.922939
v -7.200000 -0.475000 0.800000
v -7.200000 -0.458815 0.677061
v -7.200000 -0.411362 0.562500
v -7.200000 -0.335876 0.464124
v -7.200000 -0.237500 0.388638
v -7.200000 -0.122939 0.341185
v -7.200000 -0.000000 0.325000
v -7.200000 0.122939 0.341185
v -7.200000 0.237500 0.388638
v -7.200000 0.335876 0.464124
v -7.200000 0.411362 0.562500
v -7.200000 0.458815 0.677061
v -7.500000 0.475000 0.800000
v -7.500000 0.458815 0.677061
v -7.500000 0.411362 0.562500
v -7.500000 0.335876 0.464124
v -7.500000 0.237500 0.388638
v -7.500000 0.122939 0.341185
v -7.500000 -0.000000 0.325000
v -7.500000 -0.122939 0.341185
v -7.500000 -0.237500 0.388638
v -7.500000 -0.335876 0.464124
v -7.500000 -0.411362 0.562500
v -7.500000 -0.458815 0.677061
v -7.500000 -0.475000 0.800000
v -7.500000 -0.458815 0.922939
v -7.500000 -0.411362 1.037500
v -7.500000 -0.335876 1.135876
v -7.500000 -0.237500 1.211362
v -7.500000 -0.122939 1.258815
v -7.500000 -0.000000 1.275000
v -7.500000 0.122939 1.258815
v -7.500000 0.237500 1.211362
v -7.500000 0.335876 1.135876
v -7.500000 0.411362 1.037500
v -7.500000 0.458815 0.922939
v -7.200000 -4.700000 5.000000
v 0.000000 -4.700000 5.000000
v 7.200000 -4.700000 5.000000
v 7.200000 -4.700000 0.300000
v 0.000000 -4.700000 0.300000
v -7.200000 -4.700000 0.300000
v 7.200000 4.700000 5.000000
v 7.200000 4.700000 0.300000
v 0.000000 4.700000 5.000000
v -7.200000 4.700000 5.000000
v -7.200000 4.700000 0.300000
v 0.000000 4.700000 0.300000
v 7.500000 5.000000 0.000000
v 0.000000 5.000000 0.000000
v -7.500000 5.000000 0.000000
v -7.500000 5.000000 5.000000
v 0.000000 5.000000 5.000000
v 7.500000 5.000000 5.000000
v 7.500000 -5.000000 0.000000
v 7.500000 -5.000000 5.000000
v -7.500000 -5.000000 0.000000
v 0.000000 -5.000000 0.000000
v 0.000000 -5.000000 5.000000
v -7.500000 -5.000000 5.000000
vt 0.300000 -1.367902 0.000000
vt 0.000000 -1.367902 0.000000
vt 0.300000 -1.492257 0.000000
vt -0.000000 -1.492257 0.000000
vt 0.300000 1.492257 0.000000
vt -0.000000 1.492257 0.000000
vt 0.300000 1.367902 0.000000
vt -0.000000 1.367902 0.000000
vt 0.300000 1.243547 0.000000
vt -0.000000 1.243547 0.000000
vt 0.300000 1.119192 0.000000
vt -0.000000 1.119192 0.000000
vt 0.300000 0.994838 0.000000
vt -0.000000 0.994838 0.000000
vt 0.300000 0.870483 0.000000
vt -0.000000 0.870483 0.000000
vt 0.300000 0.746128 0.000000
vt 0.000000 0.746128 0.000000
vt 0.300000 0.621774 0.000000
vt 0.000000 0.621774 0.000000
vt 0.300000 0.497419 0.000000
vt 0.000000 0.497419 0.000000
vt 0.300000 0.373064 0.000000
vt 0.000000 0.373064 0.000000
vt 0.300000 0.248709 0.000000
vt 0.000000 0.248709 0.000000
vt 0.300000 0.124355 0.000000
vt 0.000000 0.124355 0.000000
vt 0.300000 0.000000 0.000000
vt 0.000000 0.000000 0.000000
vt 0.300000 -0.124355 0.000000
vt 0.000000 -0.124355 0.000000
vt 0.300000 -0.248709 0.000000
vt 0.000000 -0.248709 0.000000
vt 0.300000 -0.373064 0.000000
vt 0.000000 -0.373064 0.000000
vt 0.300000 -0.497419 0.000000
vt 0.000000 -0.497419 0.000000
vt 0.300000 -0.621774 0.000000
vt 0.000000 -0.621774 0.000000
vt 0.300000 -0.746128 0.000000
vt 0.000000 -0.746128 0.000000
vt 0.300000 -0.870483 0.000000
vt 0.000000 -0.870483 0.000000
vt 0.300000 -0.994838 0.000000
vt 0.000000 -0.994838 0.000000
vt 0.300000 -1.119192 0.000000
vt 0.000000 -1.119192 0.000000
vt 0.300000 -1.243547 0.000000
vt 0.000000 -1.243547 0.000000
vt 0.300000 -1.367902 0.000000
vt 0.000000 -1.367902 0.000000
vt 0.300000 -1.492257 0.000000
vt 0.000000 -1.492257 0.000000
vt 0.300000 1.492257 0.000000
vt 0.000000 1.492257 0.000000
vt 0.300000 1.367902 0.000000
vt 0.000000 1.367902 0.000000
vt 0.300000 1.243547 0.000000
vt 0.000000 1.243547 0.000000
vt 0.300000 1.119192 0.000000
vt 0.000000 1.119192 0.000000
vt 0.300000 0.994838 0.000000
vt 0.000000 0.994838 0.000000
vt 0.300000 0.870483 0.000000
vt 0.000000 0.870483 0.000000
vt 0.300000 0.746128 0.000000
vt 0.000000 0.746128 0.000000
vt 0.300000 0.621774 0.000000
vt 0.000000 0.621774 0.000000
vt 0.300000 0.497419 0.000000
vt 0.000000 0.497419 0.000000
vt 0.300000 0.373064 0.000000
vt 0.000000 0.373064 0.000000
vt 0.300000 0.248709 0.000000
vt 0.000000 0.248709 0.000000
vt 0.300000 0.124355 0.000000
vt 0.000000 0.124355 0.000000
vt 0.300000 0.000000 0.000000
vt 0.000000 0.000000 0.000000
vt 0.300000 -0.124355 0.000000
vt 0.000000 -0.124355 0.000000
vt 0.300000 -0.248709 0.000000
vt 0.000000 -0.248709 0.000000
vt 0.300000 -0.373064 0.000000
vt 0.000000 -0.373064 0.000000
vt 0.300000 -0.497419 0.000000
vt 0.000000 -0.497419 0.000000
vt 0.300000 -0.621774 0.000000
vt 0.000000 -0.621774 0.000000
vt 0.300000 -0.746128 0.000000
vt 0.000000 -0.746128 0.000000
vt 0.300000 -0.870483 0.000000
vt 0.000000 -0.870483 0.000000
vt 0.300000 -0.994838 0.000000
vt 0.000000 -0.994838 0.000000
vt 0.300000 -1.119192 0.000000
vt 0.000000 -1.119192 0.000000
vt 0.300000 -1.243547 0.000000
vt 0.000000 -1.243547 0.000000
vt -14.400000 0.000000 0.000000
vt -7.200000 0.000000 0.000000
vt -14.400000 4.700000 0.000000
vt -7.200000 4.700000 0.000000
vt 0.000000 0.000000 0.000000
vt -0.000000 4.700000 0.000000
vt -5.158815 4.077061 0.000000
vt -5.175000 4.200000 0.000000
vt -9.400000 4.700000 0.000000
vt -5.158815 4.322939 0.000000
vt -5.111362 4.437500 0.000000
vt -5.035876 4.535876 0.000000
vt -4.937500 4.611362 0.000000
vt -4.822939 4.658815 0.000000
vt -4.700000 4.675000 0.000000
vt -0.000000 4.700000 0.000000
vt -4.577061 4.658815 0.000000
vt -4.462500 4.611362 0.000000
vt -4.364124 4.535876 0.000000
vt -4.288638 4.437500 0.000000
vt -4.241185 4.322939 0.000000
vt -4.225000 4.200000 0.000000
vt -4.241185 4.077061 0.000000
vt -4.288638 3.962500 0.000000
vt -4.364124 3.864124 0.000000
vt -4.462500 3.788638 0.000000
vt 0.000000 0.000000 0.000000
vt -4.577061 3.741185 0.000000
vt -4.700000 3.725000 0.000000
vt -9.400000 0.000000 0.000000
vt -4.822939 3.741185 0.000000
vt -4.937500 3.788638 0.000000
vt -5.035876 3.864124 0.000000
vt -5.111362 3.962500 0.000000
vt -14.400000 0.000000 0.000000
vt -7.200000 0.000000 0.000000
vt -14.400000 4.700000 0.000000
vt -7.200000 4.700000 0.000000
vt -0.000000 0.000000 0.000000
vt -0.000000 4.700000 0.000000
vt -5.158815 4.077061 0.000000
vt -5.175000 4.200000 0.000000
vt -9.400000 4.700000 0.000000
vt -5.158815 4.322939 0.000000
vt -5.111362 4.437500 0.000000
vt -5.035876 4.535876 0.000000
vt -4.937500 4.611362 0.000000
vt -4.822939 4.658815 0.000000
vt -4.700000 4.675000 0.000000
vt -0.000000 4.700000 0.000000
vt -4.577061 4.658815 0.000000
vt -4.462500 4.611362 0.000000
vt -4.364124 4.535876 0.000000
vt -4.288638 4.437500 0.000000
vt -4.241185 4.322939 0.000000
vt -4.225000 4.200000 0.000000
vt -4.241185 4.077061 0.000000
vt -4.288638 3.962500 0.000000
vt -4.364124 3.864124 0.000000
vt -4.462500 3.788638 0.000000
vt -0.000000 0.000000 0.000000
vt -4.577061 3.741185 0.000000
vt -4.700000 3.725000 0.000000
vt -9.400000 0.000000 0.000000
vt -4.822939 3.741185 0.000000
vt -4.937500 3.788638 0.000000
vt -5.035876 3.864124 0.000000
vt -5.111362 3.962500 0.000000
vt -7.200000 -4.700000 0.000000
vt -0.000000 -4.700000 0.000000
vt -7.200000 4.700000 0.000000
vt -0.000000 4.700000 0.000000
vt 7.200000 -4.700000 0.000000
vt 7.200000 4.700000 0.000000
vt 0.000000 0.000000 0.000000
vt 7.500000 0.000000 0.000000
vt 0.000000 5.000000 0.000000
vt 7.500000 5.000000 0.000000
vt 15.000000 0.000000 0.000000
vt 15.000000 5.000000 0.000000
vt 4.541185 0.677061 0.000000
vt 4.525000 0.800000 0.000000
vt 0.000000 0.000000 0.000000
vt 4.541185 0.922939 0.000000
vt 4.588638 1.037500 0.000000
vt 4.664124 1.135876 0.000000
vt 0.000000 5.000000 0.000000
vt 4.762500 1.211362 0.000000
vt 4.877061 1.258815 0.000000
vt 5.000000 1.275000 0.000000
vt 10.000000 5.000000 0.000000
vt 5.122939 1.258815 0.000000
vt 5.237500 1.211362 0.000000
vt 5.335876 1.135876 0.000000
vt 10.000000 0.000000 0.000000
vt 5.411362 1.037500 0.000000
vt 5.458815 0.922939 0.000000
vt 5.475000 0.800000 0.000000
vt 5.458815 0.677061 0.000000
vt 5.411362 0.562500 0.000000
vt 5.335876 0.464124 0.000000
vt 5.237500 0.388638 0.000000
vt 5.122939 0.341185 0.000000
vt 5.000000 0.325000 0.000000
vt 4.877061 0.341185 0.000000
vt 4.762500 0.388638 0.000000
vt 4.664124 0.464124 0.000000
vt 4.588638 0.562500 0.000000
vt 0.000000 0.000000 0.000000
vt 7.500000 0.000000 0.000000
vt 0.000000 5.000000 0.000000
vt 7.500000 5.000000 0.000000
vt 15.000000 0.000000 0.000000
vt 15.000000 5.000000 0.000000
vt 4.541185 0.677061 0.000000
vt 4.525000 0.800000 0.000000
vt 0.000000 0.000000 0.000000
vt 4.541185 0.922939 0.000000
vt 4.588638 1.037500 0.000000
vt 4.664124 1.135876 0.000000
vt 0.000000 5.000000 0.000000
vt 4.762500 1.211362 0.000000
vt 4.877061 1.258815 0.000000
vt 5.000000 1.275000 0.000000
vt 10.000000 5.000000 0.000000
vt 5.122939 1.258815 0.000000
vt 5.237500 1.211362 0.000000
vt 5.335876 1.135876 0.000000
vt 10.000000 0.000000 0.000000
vt 5.411362 1.037500 0.000000
vt 5.458815 0.922939 0.000000
vt 5.475000 0.800000 0.000000
vt 5.458815 0.677061 0.000000
vt 5.411362 0.562500 0.000000
vt 5.335876 0.464124 0.000000
vt 5.237500 0.388638 0.000000
vt 5.122939 0.341185 0.000000
vt 5.000000 0.325000 0.000000
vt 4.877061 0.341185 0.000000
vt 4.762500 0.388638 0.000000
vt 4.664124 0.464124 0.000000
vt 4.588638 0.562500 0.000000
vt 0.000000 -4.700000 0.000000
vt 0.000000 -5.000000 0.000000
vt 7.200000 -4.700000 0.000000
vt 7.500000 -5.000000 0.000000
vt 7.200000 4.700000 0.000000
vt 7.500000 5.000000 0.000000
vt 0.000000 5.000000 0.000000
vt -7.200000 -4.700000 0.000000
vt -7.500000 -5.000000 0.000000
vt -7.200000 4.700000 0.000000
vt -7.500000 5.000000 0.000000
vt 0.000000 4.700000 0.000000
vt 7.500000 5.000000 0.000000
vt -0.000000 5.000000 0.000000
vt 7.500000 -5.000000 0.000000
vt -0.000000 -5.000000 0.000000
vt -7.500000 5.000000 0.000000
vt -7.500000 -5.000000 0.000000
vn 0.000000 0.965926 -0.258819
vn 0.000000 0.965926 -0.258819
vn 0.000000 1.000000 -0.000000
vn 0.000000 1.000000 -0.000000
vn 0.000000 0.965926 0.258819
vn 0.000000 0.965926 0.258819
vn 0.000000 0.866025 0.500000
vn 0.000000 0.866025 0.500000
vn 0.000000 0.707107 0.707107
vn 0.000000 0.707107 0.707107
vn 0.000000 0.500000 0.866025
vn 0.000000 0.500000 0.866025
vn 0.000000 0.258819 0.965926
vn 0.000000 0.258819 0.965926
vn 0.000000 -0.000000 1.000000
vn 0.000000 -0.000000 1.000000
vn 0.000000 -0.258819 0.965926
vn 0.000000 -0.258819 0.965926
vn 0.000000 -0.500000 0.866025
vn 0.000000 -0.500000 0.866025
vn 0.000000 -0.707107 0.707107
vn 0.000000 -0.707107 0.707107
vn 0.000000 -0.866025 0.500000
vn 0.000000 -0.866025 0.500000
vn 0.000000 -0.965926 0.258819
vn 0.000000 -0.965926 0.258819
vn -0.000000 -1.000000 -0.000000
vn -0.000000 -1.000000 -0.000000
vn -0.000000 -0.965926 -0.258819
vn -0.000000 -0.965926 -0.258819
vn -0.000000 -0.866025 -0.500000
vn -0.000000 -0.866025 -0.500000
vn -0.000000 -0.707107 -0.707107
vn -0.000000 -0.707107 -0.707107
vn -0.000000 -0.500000 -0.866025
vn -0.000000 -0.500000 -0.866025
vn -0.000000 -0.258819 -0.965926
vn -0.000000 -0.258819 -0.965926
vn -0.000000 -0.000000 -1.000000
vn -0.000000 -0.000000 -1.000000
vn 0.000000 0.258819 -0.965926
vn 0.000000 0.258819 -0.965926
vn 0.000000 0.500000 -0.866025
vn 0.000000 0.500000 -0.866025
vn 0.000000 0.707107 -0.707107
vn 0.000000 0.707107 -0.707107
vn 0.000000 0.866025 -0.500000
vn 0.000000 0.866025 -0.500000
vn 0.000000 -0.965926 -0.258819
vn 0.000000 -0.965926 -0.258819
vn 0.000000 -1.000000 -0.000000
vn 0.000000 -1.000000 -0.000000
vn 0.000000 -0.965926 0.258819
vn 0.000000 -0.965926 0.258819
vn 0.000000 -0.866025 0.500000
vn 0.000000 -0.866025 0.500000
vn 0.000000 -0.707107 0.707107
vn 0.000000 -0.707107 0.707107
vn 0.000000 -0.500000 0.866025
vn 0.000000 -0.500000 0.866025
vn 0.000000 -0.258819 0.965926
vn 0.000000 -0.258819 0.965926
vn -0.000000 0.000000 1.000000
vn -0.000000 0.000000 1.000000
vn -0.000000 0.258819 0.965926
vn -0.000000 0.258819 0.965926
vn -0.000000 0.500000 0.866025
vn -0.000000 0.500000 0.866025
vn -0.000000 0.707107 0.707107
vn -0.000000 0.707107 0.707107
vn -0.000000 0.866025 0.500000
vn -0.000000 0.866025 0.500000
vn -0.000000 0.965926 0.258819
vn -0.000000 0.965926 0.258819
vn -0.000000 1.000000 0.000000
vn -0.000000 1.000000 0.000000
vn 0.000000 0.965926 -0.258819
vn 0.000000 0.965926 -0.258819
vn 0.000000 0.866025 -0.500000
vn 0.000000 0.866025 -0.500000
vn 0.000000 0.707107 -0.707107
vn 0.000000 0.707107 -0.707107
vn 0.000000 0.500000 -0.866025
vn 0.000000 0.500000 -0.866025
vn 0.000000 0.258819 -0.965926
vn 0.000000 0.258819 -0.965926
vn 0.000000 0.000000 -1.000000
vn 0.000000 0.000000 -1.000000
vn 0.000000 -0.258819 -0.965926
vn 0.000000 -0.258819 -0.965926
vn 0.000000 -0.500000 -0.866025
vn 0.000000 -0.500000 -0.866025
vn 0.000000 -0.707107 -0.707107
vn 0.000000 -0.707107 -0.707107
vn 0.000000 -0.866025 -0.500000
vn 0.000000 -0.866025 -0.500000
vn -0.000000 1.000000 -0.000000
vn -0.000000 1.000000 -0.000000
vn -0.000000 1.000000 -0.000000
vn -0.000000 1.000000 -0.000000
vn -0.000000 1.000000 -0.000000
vn -0.000000 1.000000 -0.000000
vn -1.000000 0.000000 -0.000000
vn -1.000000 0.000000 -0.000000
vn -1.000000 0.000000 -0.000000
vn -1.000000 0.000000 -0.000000
vn -1.000000 0.000000 -0.000000
vn -1.000000 0.000000 -0.000000
vn -1.000000 0.000000 -0.000000
vn -1.000000 0.000000 -0.000000
vn -1.000000 0.000000 -0.000000
vn -1.000000 0.000000 -0.000000
vn -1.000000 0.000000 -0.000000
vn -1.000000 0.000000 -0.000000
vn -1.000000 0.000000 -0.000000
vn -1.000000 0.000000 -0.000000
vn -1.000000 0.000000 -0.000000
vn -1.000000 0.000000 -0.000000
vn -1.000000 0.000000 -0.000000
vn -1.000000 0.000000 -0.000000
vn -1.000000 0.000000 -0.000000
vn -1.000000 0.000000 -0.000000
vn -1.000000 0.000000 -0.000000
vn -1.000000 0.000000 -0.000000
vn -1.000000 0.000000 -0.000000
vn -1.000000 0.000000 -0.000000
vn -1.000000 0.000000 -0.000000
vn -1.000000 0.000000 -0.000000
vn -1.000000 0.000000 -0.000000
vn -1.000000 0.000000 -0.000000
vn -0.000000 -1.000000 -0.000000
vn -0.000000 -1.000000 -0.000000
vn -0.000000 -1.000000 -0.000000
vn -0.000000 -1.000000 -0.000000
vn -0.000000 -1.000000 -0.000000
vn -0.000000 -1.000000 -0.000000
vn 1.000000 0.000000 0.000000
vn 1.000000 0.000000 0.000000
vn 1.000000 0.000000 0.000000
vn 1.000000 0.000000 0.000000
vn 1.000000 0.000000 0.000000
vn 1.000000 0.000000 0.000000
vn 1.000000 0.000000 0.000000
vn 1.000000 0.000000 0.000000
vn 1.000000 0.000000 0.000000
vn 1.000000 0.000000 0.000000
vn 1.000000 0.000000 0.000000
vn 1.000000 0.000000 0.000000
vn 1.000000 0.000000 0.000000
vn 1.000000 0.000000 0.000000
vn 1.000000 0.000000 0.000000
vn 1.000000 0.000000 0.000000
vn 1.000000 0.000000 0.000000
vn 1.000000 0.000000 0.000000
vn 1.000000 0.000000 0.000000
vn 1.000000 0.000000 0.000000
vn 1.000000 0.000000 0.000000
vn 1.000000 0.000000 0.000000
vn 1.000000 0.000000 0.000000
vn 1.000000 0.000000 0.000000
vn 1.000000 0.000000 0.000000
vn 1.000000 0.000000 0.000000
vn 1.000000 0.000000 0.000000
vn 1.000000 0.000000 0.000000
vn -0.000000 -0.000000 1.000000
vn -0.000000 -0.000000 1.000000
vn -0.000000 -0.000000 1.000000
vn -0.000000 -0.000000 1.000000
vn -0.000000 -0.000000 1.000000
vn -0.000000 -0.000000 1.000000
vn 0.000000 1.000000 -0.000000
vn 0.000000 1.000000 -0.000000
vn 0.000000 1.000000 -0.000000
vn 0.000000 1.000000 -0.000000
vn 0.000000 1.000000 -0.000000
vn 0.000000 1.000000 -0.000000
vn 1.000000 0.000000 0.000000
vn 1.000000 0.000000 0.000000
vn 1.000000 0.000000 0.000000
vn 1.000000 0.000000 0.000000
vn 1.000000 0.000000 0.000000
vn 1.000000 0.000000 0.000000
vn 1.000000 0.000000 0.000000
vn 1.000000 0.000000 0.000000
vn 1.000000 0.000000 0.000000
vn 1.000000 0.000000 0.000000
vn 1.000000 0.000000 0.000000
vn 1.000000 0.000000 0.000000
vn 1.000000 0.000000 0.000000
vn 1.000000 0.000000 0.000000
vn 1.000000 0.000000 0.000000
vn 1.000000 0.000000 0.000000
vn 1.000000 0.000000 0.000000
vn 1.000000 0.000000 0.000000
vn 1.000000 0.000000 0.000000
vn 1.000000 0.000000 0.000000
vn 1.000000 0.000000 0.000000
vn 1.000000 0.000000 0.000000
vn 1.000000 0.000000 0.000000
vn 1.000000 0.000000 0.000000
vn 1.000000 0.000000 0.000000
vn 1.000000 0.000000 0.000000
vn 1.000000 0.000000 0.000000
vn 1.000000 0.000000 0.000000
vn 0.000000 -1.000000 0.000000
vn 0.000000 -1.000000 0.000000
vn 0.000000 -1.000000 0.000000
vn 0.000000 -1.000000 0.000000
vn 0.000000 -1.000000 0.000000
vn 0.000000 -1.000000 0.000000
vn -1.000000 0.000000 0.000000
vn -1.000000 0.000000 0.000000
vn -1.000000 0.000000 0.000000
vn -1.000000 0.000000 0.000000
vn -1.000000 0.000000 0.000000
vn -1.000000 0.000000 0.000000
vn -1.000000 0.000000 0.000000
vn -1.000000 0.000000 0.000000
vn -1.000000 0.000000 0.000000
vn -1.000000 0.000000 0.000000
vn -1.000000 0.000000 0.000000
vn -1.000000 0.000000 0.000000
vn -1.000000 0.000000 0.000000
vn -1.000000 0.000000 0.000000
vn -1.000000 0.000000 0.000000
vn -1.000000 0.000000 0.000000
vn -1.000000 0.000000 0.000000
vn -1.000000 0.000000 0.000000
vn -1.000000 0.000000 0.000000
vn -1.000000 0.000000 0.000000
vn -1.000000 0.000000 0.000000
vn -1.000000 0.000000 0.000000
vn -1.000000 0.000000 0.000000
vn -1.000000 0.000000 0.000000
vn -1.000000 0.000000 0.000000
vn -1.000000 0.000000 0.000000
vn -1.000000 0.000000 0.000000
vn -1.000000 0.000000 0.000000
vn 0.000000 0.000000 1.000000
vn 0.000000 0.000000 1.000000
vn 0.000000 0.000000 1.000000
vn 0.000000 0.000000 1.000000
vn 0.000000 0.000000 1.000000
vn 0.000000 0.000000 1.000000
vn 0.000000 0.000000 1.000000
vn 0.000000 0.000000 1.000000
vn 0.000000 0.000000 1.000000
vn 0.000000 0.000000 1.000000
vn 0.000000 0.000000 1.000000
vn 0.000000 0.000000 1.000000
vn -0.000000 -0.000000 -1.000000
vn -0.000000 -0.000000 -1.000000
vn -0.000000 -0.000000 -1.000000
vn -0.000000 -0.000000 -1.000000
vn -0.000000 -0.000000 -1.000000
vn -0.000000 -0.000000 -1.000000
usemtl 강철_-_새틴
f 2/1/1 48/2/2 1/3/3
f 1/3/3 48/2/2 25/4/4
f 1/5/3 25/6/4 24/7/5
f 24/7/5 25/6/4 26/8/6
f 24/7/5 26/8/6 23/9/7
f 23/9/7 26/8/6 27/10/8
f 23/9/7 27/10/8 22/11/9
f 22/11/9 27/10/8 28/12/10
f 22/11/9 28/12/10 21/13/11
f 21/13/11 28/12/10 29/14/12
f 21/13/11 29/14/12 20/15/13
f 20/15/13 29/14/12 30/16/14
f 20/15/13 30/16/14 19/17/15
f 19/17/15 30/16/14 31/18/16
f 19/17/15 31/18/16 18/19/17
f 18/19/17 31/18/16 32/20/18
f 18/19/17 32/20/18 17/21/19
f 17/21/19 32/20/18 33/22/20
f 17/21/19 33/22/20 16/23/21
f 16/23/21 33/22/20 34/24/22
f 16/23/21 34/24/22 15/25/23
f 15/25/23 34/24/22 35/26/24
f 15/25/23 35/26/24 14/27/25
f 14/27/25 35/26/24 36/28/26
f 14/27/25 36/28/26 13/29/27
f 13/29/27 36/28/26 37/30/28
f 13/29/27 37/30/28 12/31/29
f 12/31/29 37/30/28 38/32/30
f 12/31/29 38/32/30 11/33/31
f 11/33/31 38/32/30 39/34/32
f 11/33/31 39/34/32 10/35/33
f 10/35/33 39/34/32 40/36/34
f 10/35/33 40/36/34 9/37/35
f 9/37/35 40/36/34 41/38/36
f 9/37/35 41/38/36 8/39/37
f 8/39/37 41/38/36 42/40/38
f 8/39/37 42/40/38 7/41/39
f 7/41/39 42/40/38 43/42/40
f 7/41/39 43/42/40 6/43/41
f 6/43/41 43/42/40 44/44/42
f 6/43/41 44/44/42 5/45/43
f 5/45/43 44/44/42 45/46/44
f 5/45/43 45/46/44 4/47/45
f 4/47/45 45/46/44 46/48/46
f 4/47/45 46/48/46 3/49/47
f 3/49/47 46/48/46 47/50/48
f 3/49/47 47/50/48 2/1/1
f 2/1/1 47/50/48 48/2/2
f 50/51/49 96/52/50 49/53/51
f 49/53/51 96/52/50 73/54/52
f 49/55/51 73/56/52 72/57/53
f 72/57/53 73/56/52 74/58/54
f 72/57/53 74/58/54 71/59/55
f 71/59/55 74/58/54 75/60/56
f 71/59/55 75/60/56 70/61/57
f 70/61/57 75/60/56 76/62/58
f 70/61/57 76/62/58 69/63/59
f 69/63/59 76/62/58 77/64/60
f 69/63/59 77/64/60 68/65/61
f 68/65/61 77/64/60 78/66/62
f 68/65/61 78/66/62 67/67/63
f 67/67/63 78/66/62 79/68/64
f 67/67/63 79/68/64 66/69/65
f 66/69/65 79/68/64 80/70/66
f 66/69/65 80/70/66 65/71/67
f 65/71/67 80/70/66 81/72/68
f 65/71/67 81/72/68 64/73/69
f 64/73/69 81/72/68 82/74/70
f 64/73/69 82/74/70 63/75/71
f 63/75/71 82/74/70 83/76/72
f 63/75/71 83/76/72 62/77/73
f 62/77/73 83/76/72 84/78/74
f 62/77/73 84/78/74 61/79/75
f 61/79/75 84/78/74 85/80/76
f 61/79/75 85/80/76 60/81/77
f 60/81/77 85/80/76 86/82/78
f 60/81/77 86/82/78 59/83/79
f 59/83/79 86/82/78 87/84/80
f 59/83/79 87/84/80 58/85/81
f 58/85/81 87/84/80 88/86/82
f 58/85/81 88/86/82 57/87/83
f 57/87/83 88/86/82 89/88/84
f 57/87/83 89/88/84 56/89/85
f 56/89/85 89/88/84 90/90/86
f 56/89/85 90/90/86 55/91/87
f 55/91/87 90/90/86 91/92/88
f 55/91/87 91/92/88 54/93/89
f 54/93/89 91/92/88 92/94/90
f 54/93/89 92/94/90 53/95/91
f 53/95/91 92/94/90 93/96/92
f 53/95/91 93/96/92 52/97/93
f 52/97/93 93/96/92 94/98/94
f 52/97/93 94/98/94 51/99/95
f 51/99/95 94/98/94 95/100/96
f 51/99/95 95/100/96 50/51/49
f 50/51/49 95/100/96 96/52/50
f 97/101/97 98/102/98 102/103/99
f 102/103/99 98/102/98 101/104/100
f 101/104/100 98/102/98 99/105/101
f 101/104/100 99/105/101 100/106/102
f 2/107/103 1/108/104 100/109/105
f 100/109/105 1/108/104 24/110/106
f 100/109/105 24/110/106 23/111/107
f 23/111/107 22/112/108 100/109/105
f 100/109/105 22/112/108 21/113/109
f 100/109/105 21/113/109 20/114/110
f 20/114/110 19/115/111 100/109/105
f 100/109/105 19/115/111 104/116/112
f 104/116/112 19/115/111 18/117/113
f 104/116/112 18/117/113 17/118/114
f 17/118/114 16/119/115 104/116/112
f 104/116/112 16/119/115 15/120/116
f 104/116/112 15/120/116 14/121/117
f 14/121/117 13/122/118 104/116/112
f 104/116/112 13/122/118 12/123/119
f 104/116/112 12/123/119 11/124/120
f 11/124/120 10/125/121 104/116/112
f 104/116/112 10/125/121 9/126/122
f 104/116/112 9/126/122 103/127/123
f 103/127/123 9/126/122 8/128/124
f 103/127/123 8/128/124 7/129/125
f 103/127/123 7/129/125 99/130/126
f 99/130/126 7/129/125 6/131/127
f 99/130/126 6/131/127 5/132/128
f 99/130/126 5/132/128 100/109/105
f 100/109/105 5/132/128 4/133/129
f 100/109/105 4/133/129 3/134/130
f 3/134/130 2/107/103 100/109/105
f 103/135/131 105/136/132 104/137/133
f 104/137/133 105/136/132 108/138/134
f 108/138/134 105/136/132 106/139/135
f 108/138/134 106/139/135 107/140/136
f 50/141/137 49/142/138 107/143/139
f 107/143/139 49/142/138 72/144/140
f 107/143/139 72/144/140 71/145/141
f 71/145/141 70/146/142 107/143/139
f 107/143/139 70/146/142 69/147/143
f 107/143/139 69/147/143 68/148/144
f 68/148/144 67/149/145 107/143/139
f 107/143/139 67/149/145 102/150/146
f 102/150/146 67/149/145 66/151/147
f 102/150/146 66/151/147 65/152/148
f 65/152/148 64/153/149 102/150/146
f 102/150/146 64/153/149 63/154/150
f 102/150/146 63/154/150 62/155/151
f 62/155/151 61/156/152 102/150/146
f 102/150/146 61/156/152 60/157/153
f 102/150/146 60/157/153 59/158/154
f 59/158/154 58/159/155 102/150/146
f 102/150/146 58/159/155 57/160/156
f 102/150/146 57/160/156 97/161/157
f 97/161/157 57/160/156 56/162/158
f 97/161/157 56/162/158 55/163/159
f 97/161/157 55/163/159 106/164/160
f 106/164/160 55/163/159 54/165/161
f 106/164/160 54/165/161 53/166/162
f 106/164/160 53/166/162 107/143/139
f 107/143/139 53/166/162 52/167/163
f 107/143/139 52/167/163 51/168/164
f 51/168/164 50/141/137 107/143/139
f 102/169/165 101/170/166 107/171/167
f 107/171/167 101/170/166 108/172/168
f 108/172/168 101/170/166 100/173/169
f 108/172/168 100/173/169 104/174/170
f 109/175/171 110/176/172 114/177/173
f 114/177/173 110/176/172 113/178/174
f 113/178/174 110/176/172 111/179/175
f 113/178/174 111/179/175 112/180/176
f 26/181/177 25/182/178 115/183/179
f 115/183/179 25/182/178 48/184/180
f 115/183/179 48/184/180 47/185/181
f 47/185/181 46/186/182 115/183/179
f 115/183/179 46/186/182 116/187/183
f 116/187/183 46/186/182 45/188/184
f 116/187/183 45/188/184 44/189/185
f 44/189/185 43/190/186 116/187/183
f 116/187/183 43/190/186 114/191/187
f 114/191/187 43/190/186 42/192/188
f 114/191/187 42/192/188 41/193/189
f 41/193/189 40/194/190 114/191/187
f 114/191/187 40/194/190 109/195/191
f 109/195/191 40/194/190 39/196/192
f 109/195/191 39/196/192 38/197/193
f 38/197/193 37/198/194 109/195/191
f 109/195/191 37/198/194 36/199/195
f 109/195/191 36/199/195 35/200/196
f 35/200/196 34/201/197 109/195/191
f 109/195/191 34/201/197 33/202/198
f 109/195/191 33/202/198 32/203/199
f 32/203/199 31/204/200 109/195/191
f 109/195/191 31/204/200 115/183/179
f 115/183/179 31/204/200 30/205/201
f 115/183/179 30/205/201 29/206/202
f 29/206/202 28/207/203 115/183/179
f 115/183/179 28/207/203 27/208/204
f 115/183/179 27/208/204 26/181/177
f 117/209/205 118/210/206 120/211/207
f 120/211/207 118/210/206 119/212/208
f 119/212/208 118/210/206 115/213/209
f 119/212/208 115/213/209 116/214/210
f 74/215/211 73/216/212 111/217/213
f 111/217/213 73/216/212 96/218/214
f 111/217/213 96/218/214 95/219/215
f 95/219/215 94/220/216 111/217/213
f 111/217/213 94/220/216 112/221/217
f 112/221/217 94/220/216 93/222/218
f 112/221/217 93/222/218 92/223/219
f 92/223/219 91/224/220 112/221/217
f 112/221/217 91/224/220 120/225/221
f 120/225/221 91/224/220 90/226/222
f 120/225/221 90/226/222 89/227/223
f 89/227/223 88/228/224 120/225/221
f 120/225/221 88/228/224 117/229/225
f 117/229/225 88/228/224 87/230/226
f 117/229/225 87/230/226 86/231/227
f 86/231/227 85/232/228 117/229/225
f 117/229/225 85/232/228 84/233/229
f 117/229/225 84/233/229 83/234/230
f 83/234/230 82/235/231 117/229/225
f 117/229/225 82/235/231 81/236/232
f 117/229/225 81/236/232 80/237/233
f 80/237/233 79/238/234 117/229/225
f 117/229/225 79/238/234 111/217/213
f 111/217/213 79/238/234 78/239/235
f 111/217/213 78/239/235 77/240/236
f 77/240/236 76/241/237 111/217/213
f 111/217/213 76/241/237 75/242/238
f 111/217/213 75/242/238 74/215/211
f 98/243/239 119/244/240 99/245/241
f 99/245/241 119/244/240 116/246/242
f 99/245/241 116/246/242 103/247/243
f 103/247/243 116/246/242 114/248/244
f 103/247/243 114/248/244 113/249/245
f 98/243/239 97/250/246 119/244/240
f 119/244/240 97/250/246 120/251/247
f 120/251/247 97/250/246 106/252/248
f 120/251/247 106/252/248 112/253/249
f 112/253/249 106/252/248 113/249/245
f 113/249/245 106/252/248 105/254/250
f 113/249/245 105/254/250 103/247/243
f 111/255/251 110/256/252 117/257/253
f 117/257/253 110/256/252 118/258/254
f 118/258/254 110/256/252 109/259/255
f 118/258/254 109/259/255 115/260/256
# 120 vertices
# 260 texture params
# 256 normals
# 244 facets

# 1 groups
